<svg width="210mm" height="162mm" version="1.1" viewBox="0 0 210 162" xmlns="http://www.w3.org/2000/svg">
 <rect x="2.7069" y="15.104" width="14.021" height="14.021" ry="2.0572" style="fill-rule:evenodd;fill:#7e7e7e;stroke-width:.265;stroke:#fff"/>
 <rect x="18.221" y="15.028" width="14.021" height="14.021" ry="2.0572" style="fill-rule:evenodd;fill:#7e7e7e;stroke-width:.265;stroke:#fff"/>
 <rect x="18.217" y="31.318" width="14.021" height="14.021" ry="2.0572" style="fill-rule:evenodd;fill:#7e7e7e;stroke-width:.265;stroke:#fff"/>
 <rect x="2.7881" y="31.427" width="14.021" height="14.021" ry="2.0572" style="fill-rule:evenodd;fill:#7e7e7e;stroke-width:.265;stroke:#fff"/>
 <rect x="2.7881" y="47.884" width="14.021" height="14.021" ry="2.0572" style="fill-rule:evenodd;fill:#7e7e7e;stroke-width:.265;stroke:#fff"/>
 <rect x="18.303" y="47.808" width="14.021" height="14.021" ry="2.0572" style="fill-rule:evenodd;fill:#7e7e7e;stroke-width:.265;stroke:#fff"/>
 <rect x="18.298" y="64.098" width="14.021" height="14.021" ry="2.0572" style="fill-rule:evenodd;fill:#7e7e7e;stroke-width:.265;stroke:#fff"/>
 <rect x="2.8693" y="64.207" width="14.021" height="14.021" ry="2.0572" style="fill-rule:evenodd;fill:#7e7e7e;stroke-width:.265;stroke:#fff"/>
 <rect x="43.72" y="15.028" width="14.021" height="14.021" ry="2.0572" style="fill-rule:evenodd;fill:#7e7e7e;stroke-width:.265;stroke:#fff"/>
 <rect x="59.234" y="14.951" width="14.021" height="14.021" ry="2.0572" style="fill-rule:evenodd;fill:#7e7e7e;stroke-width:.265;stroke:#fff"/>
 <rect x="59.23" y="31.242" width="14.021" height="14.021" ry="2.0572" style="fill-rule:evenodd;fill:#7e7e7e;stroke-width:.265;stroke:#fff"/>
 <rect x="43.801" y="31.35" width="14.021" height="14.021" ry="2.0572" style="fill-rule:evenodd;fill:#7e7e7e;stroke-width:.265;stroke:#fff"/>
 <rect x="43.801" y="47.898" width="14.021" height="14.021" ry="2.0572" style="fill-rule:evenodd;fill:#7e7e7e;stroke-width:.265;stroke:#fff"/>
 <rect x="59.315" y="47.821" width="14.021" height="14.021" ry="2.0572" style="fill-rule:evenodd;fill:#7e7e7e;stroke-width:.265;stroke:#fff"/>
 <rect x="59.311" y="64.112" width="14.021" height="14.021" ry="2.0572" style="fill-rule:evenodd;fill:#7e7e7e;stroke-width:.265;stroke:#fff"/>
 <rect x="43.882" y="64.22" width="14.021" height="14.021" ry="2.0572" style="fill-rule:evenodd;fill:#7e7e7e;stroke-width:.265;stroke:#fff"/>
 <rect x="2.7839" y="80.037" width="14.021" height="14.021" ry="2.0572" style="fill-rule:evenodd;fill:#7e7e7e;stroke-width:.265;stroke:#fff"/>
 <rect x="18.298" y="79.96" width="14.021" height="14.021" ry="2.0572" style="fill-rule:evenodd;fill:#7e7e7e;stroke-width:.265;stroke:#fff"/>
 <rect x="18.294" y="96.251" width="14.021" height="14.021" ry="2.0572" style="fill-rule:evenodd;fill:#7e7e7e;stroke-width:.265;stroke:#fff"/>
 <rect x="2.8651" y="96.359" width="14.021" height="14.021" ry="2.0572" style="fill-rule:evenodd;fill:#7e7e7e;stroke-width:.265;stroke:#fff"/>
 <rect x="2.8651" y="112.82" width="14.021" height="14.021" ry="2.0572" style="fill-rule:evenodd;fill:#7e7e7e;stroke-width:.265;stroke:#fff"/>
 <rect x="18.38" y="112.74" width="14.021" height="14.021" ry="2.0572" style="fill-rule:evenodd;fill:#7e7e7e;stroke-width:.265;stroke:#fff"/>
 <rect x="18.375" y="129.03" width="14.021" height="14.021" ry="2.0572" style="fill-rule:evenodd;fill:#7e7e7e;stroke-width:.265;stroke:#fff"/>
 <rect x="2.9463" y="129.14" width="14.021" height="14.021" ry="2.0572" style="fill-rule:evenodd;fill:#7e7e7e;stroke-width:.265;stroke:#fff"/>
 <rect x="43.797" y="79.96" width="14.021" height="14.021" ry="2.0572" style="fill-rule:evenodd;fill:#7e7e7e;stroke-width:.265;stroke:#fff"/>
 <rect x="59.311" y="79.884" width="14.021" height="14.021" ry="2.0572" style="fill-rule:evenodd;fill:#7e7e7e;stroke-width:.265;stroke:#fff"/>
 <rect x="59.307" y="96.174" width="14.021" height="14.021" ry="2.0572" style="fill-rule:evenodd;fill:#7e7e7e;stroke-width:.265;stroke:#fff"/>
 <rect x="43.878" y="96.283" width="14.021" height="14.021" ry="2.0572" style="fill-rule:evenodd;fill:#7e7e7e;stroke-width:.265;stroke:#fff"/>
 <rect x="43.878" y="112.83" width="14.021" height="14.021" ry="2.0572" style="fill-rule:evenodd;fill:#7e7e7e;stroke-width:.265;stroke:#fff"/>
 <rect x="59.393" y="112.75" width="14.021" height="14.021" ry="2.0572" style="fill-rule:evenodd;fill:#7e7e7e;stroke-width:.265;stroke:#fff"/>
 <rect x="59.388" y="129.04" width="14.021" height="14.021" ry="2.0572" style="fill-rule:evenodd;fill:#7e7e7e;stroke-width:.265;stroke:#fff"/>
 <rect x="43.959" y="129.15" width="14.021" height="14.021" ry="2.0572" style="fill-rule:evenodd;fill:#7e7e7e;stroke-width:.265;stroke:#fff"/>
 <rect x="74.825" y="14.951" width="14.021" height="14.021" ry="2.0572" style="fill-rule:evenodd;fill:#7e7e7e;stroke-width:.265;stroke:#fff"/>
 <rect x="90.34" y="14.875" width="14.021" height="14.021" ry="2.0572" style="fill-rule:evenodd;fill:#7e7e7e;stroke-width:.265;stroke:#fff"/>
 <rect x="90.336" y="31.165" width="14.021" height="14.021" ry="2.0572" style="fill-rule:evenodd;fill:#7e7e7e;stroke-width:.265;stroke:#fff"/>
 <rect x="74.907" y="31.273" width="14.021" height="14.021" ry="2.0572" style="fill-rule:evenodd;fill:#7e7e7e;stroke-width:.265;stroke:#fff"/>
 <rect x="74.907" y="47.821" width="14.021" height="14.021" ry="2.0572" style="fill-rule:evenodd;fill:#7e7e7e;stroke-width:.265;stroke:#fff"/>
 <rect x="90.421" y="47.745" width="14.021" height="14.021" ry="2.0572" style="fill-rule:evenodd;fill:#7e7e7e;stroke-width:.265;stroke:#fff"/>
 <rect x="90.417" y="64.036" width="14.021" height="14.021" ry="2.0572" style="fill-rule:evenodd;fill:#7e7e7e;stroke-width:.265;stroke:#fff"/>
 <rect x="74.988" y="64.144" width="14.021" height="14.021" ry="2.0572" style="fill-rule:evenodd;fill:#7e7e7e;stroke-width:.265;stroke:#fff"/>
 <rect x="74.902" y="79.884" width="14.021" height="14.021" ry="2.0572" style="fill-rule:evenodd;fill:#7e7e7e;stroke-width:.265;stroke:#fff"/>
 <rect x="90.417" y="79.807" width="14.021" height="14.021" ry="2.0572" style="fill-rule:evenodd;fill:#7e7e7e;stroke-width:.265;stroke:#fff"/>
 <rect x="90.413" y="96.098" width="14.021" height="14.021" ry="2.0572" style="fill-rule:evenodd;fill:#7e7e7e;stroke-width:.265;stroke:#fff"/>
 <rect x="74.984" y="96.206" width="14.021" height="14.021" ry="2.0572" style="fill-rule:evenodd;fill:#7e7e7e;stroke-width:.265;stroke:#fff"/>
 <rect x="74.984" y="112.75" width="14.021" height="14.021" ry="2.0572" style="fill-rule:evenodd;fill:#7e7e7e;stroke-width:.265;stroke:#fff"/>
 <rect x="90.498" y="112.68" width="14.021" height="14.021" ry="2.0572" style="fill-rule:evenodd;fill:#7e7e7e;stroke-width:.265;stroke:#fff"/>
 <rect x="90.494" y="128.97" width="14.021" height="14.021" ry="2.0572" style="fill-rule:evenodd;fill:#7e7e7e;stroke-width:.265;stroke:#fff"/>
 <rect x="75.065" y="129.08" width="14.021" height="14.021" ry="2.0572" style="fill-rule:evenodd;fill:#7e7e7e;stroke-width:.265;stroke:#fff"/>
 <rect x="105.89" y="14.875" width="14.021" height="14.021" ry="2.0572" style="fill-rule:evenodd;fill:#7e7e7e;stroke-width:.265;stroke:#fff"/>
 <rect x="121.41" y="14.798" width="14.021" height="14.021" ry="2.0572" style="fill-rule:evenodd;fill:#7e7e7e;stroke-width:.265;stroke:#fff"/>
 <rect x="121.4" y="31.089" width="14.021" height="14.021" ry="2.0572" style="fill-rule:evenodd;fill:#7e7e7e;stroke-width:.265;stroke:#fff"/>
 <rect x="105.97" y="31.197" width="14.021" height="14.021" ry="2.0572" style="fill-rule:evenodd;fill:#7e7e7e;stroke-width:.265;stroke:#fff"/>
 <rect x="105.97" y="47.745" width="14.021" height="14.021" ry="2.0572" style="fill-rule:evenodd;fill:#7e7e7e;stroke-width:.265;stroke:#fff"/>
 <rect x="121.49" y="47.668" width="14.021" height="14.021" ry="2.0572" style="fill-rule:evenodd;fill:#7e7e7e;stroke-width:.265;stroke:#fff"/>
 <rect x="121.48" y="63.959" width="14.021" height="14.021" ry="2.0572" style="fill-rule:evenodd;fill:#7e7e7e;stroke-width:.265;stroke:#fff"/>
 <rect x="106.05" y="64.067" width="14.021" height="14.021" ry="2.0572" style="fill-rule:evenodd;fill:#7e7e7e;stroke-width:.265;stroke:#fff"/>
 <rect x="105.97" y="79.807" width="14.021" height="14.021" ry="2.0572" style="fill-rule:evenodd;fill:#7e7e7e;stroke-width:.265;stroke:#fff"/>
 <rect x="121.48" y="79.731" width="14.021" height="14.021" ry="2.0572" style="fill-rule:evenodd;fill:#7e7e7e;stroke-width:.265;stroke:#fff"/>
 <rect x="121.48" y="96.021" width="14.021" height="14.021" ry="2.0572" style="fill-rule:evenodd;fill:#7e7e7e;stroke-width:.265;stroke:#fff"/>
 <rect x="106.05" y="96.13" width="14.021" height="14.021" ry="2.0572" style="fill-rule:evenodd;fill:#7e7e7e;stroke-width:.265;stroke:#fff"/>
 <rect x="106.05" y="112.68" width="14.021" height="14.021" ry="2.0572" style="fill-rule:evenodd;fill:#7e7e7e;stroke-width:.265;stroke:#fff"/>
 <rect x="121.57" y="112.6" width="14.021" height="14.021" ry="2.0572" style="fill-rule:evenodd;fill:#7e7e7e;stroke-width:.265;stroke:#fff"/>
 <rect x="121.56" y="128.89" width="14.021" height="14.021" ry="2.0572" style="fill-rule:evenodd;fill:#7e7e7e;stroke-width:.265;stroke:#fff"/>
 <rect x="106.13" y="129" width="14.021" height="14.021" ry="2.0572" style="fill-rule:evenodd;fill:#7e7e7e;stroke-width:.265;stroke:#fff"/>
 <rect x="136.8" y="14.951" width="14.021" height="14.021" ry="2.0572" style="fill-rule:evenodd;fill:#7e7e7e;stroke-width:.265;stroke:#fff"/>
 <rect x="152.32" y="14.875" width="14.021" height="14.021" ry="2.0572" style="fill-rule:evenodd;fill:#7e7e7e;stroke-width:.265;stroke:#fff"/>
 <rect x="152.31" y="31.165" width="14.021" height="14.021" ry="2.0572" style="fill-rule:evenodd;fill:#7e7e7e;stroke-width:.265;stroke:#fff"/>
 <rect x="136.88" y="31.273" width="14.021" height="14.021" ry="2.0572" style="fill-rule:evenodd;fill:#7e7e7e;stroke-width:.265;stroke:#fff"/>
 <rect x="136.88" y="47.731" width="14.021" height="14.021" ry="2.0572" style="fill-rule:evenodd;fill:#7e7e7e;stroke-width:.265;stroke:#fff"/>
 <rect x="152.4" y="47.655" width="14.021" height="14.021" ry="2.0572" style="fill-rule:evenodd;fill:#7e7e7e;stroke-width:.265;stroke:#fff"/>
 <rect x="152.39" y="63.945" width="14.021" height="14.021" ry="2.0572" style="fill-rule:evenodd;fill:#7e7e7e;stroke-width:.265;stroke:#fff"/>
 <rect x="136.96" y="64.053" width="14.021" height="14.021" ry="2.0572" style="fill-rule:evenodd;fill:#7e7e7e;stroke-width:.265;stroke:#fff"/>
 <rect x="177.81" y="14.875" width="14.021" height="14.021" ry="2.0572" style="fill-rule:evenodd;fill:#7e7e7e;stroke-width:.265;stroke:#fff"/>
 <rect x="193.33" y="14.798" width="14.021" height="14.021" ry="2.0572" style="fill-rule:evenodd;fill:#7e7e7e;stroke-width:.265;stroke:#fff"/>
 <rect x="193.32" y="31.089" width="14.021" height="14.021" ry="2.0572" style="fill-rule:evenodd;fill:#7e7e7e;stroke-width:.265;stroke:#fff"/>
 <rect x="177.9" y="31.197" width="14.021" height="14.021" ry="2.0572" style="fill-rule:evenodd;fill:#7e7e7e;stroke-width:.265;stroke:#fff"/>
 <rect x="177.9" y="47.745" width="14.021" height="14.021" ry="2.0572" style="fill-rule:evenodd;fill:#7e7e7e;stroke-width:.265;stroke:#fff"/>
 <rect x="193.41" y="47.668" width="14.021" height="14.021" ry="2.0572" style="fill-rule:evenodd;fill:#7e7e7e;stroke-width:.265;stroke:#fff"/>
 <rect x="193.41" y="63.959" width="14.021" height="14.021" ry="2.0572" style="fill-rule:evenodd;fill:#7e7e7e;stroke-width:.265;stroke:#fff"/>
 <rect x="177.98" y="64.067" width="14.021" height="14.021" ry="2.0572" style="fill-rule:evenodd;fill:#7e7e7e;stroke-width:.265;stroke:#fff"/>
 <rect x="136.96" y="80.142" width="14.021" height="14.021" ry="2.0572" style="fill-rule:evenodd;fill:#7e7e7e;stroke-width:.265;stroke:#fff"/>
 <rect x="152.48" y="80.066" width="14.021" height="14.021" ry="2.0572" style="fill-rule:evenodd;fill:#7e7e7e;stroke-width:.265;stroke:#fff"/>
 <rect x="152.47" y="96.356" width="14.021" height="14.021" ry="2.0572" style="fill-rule:evenodd;fill:#7e7e7e;stroke-width:.265;stroke:#fff"/>
 <rect x="137.05" y="96.464" width="14.021" height="14.021" ry="2.0572" style="fill-rule:evenodd;fill:#7e7e7e;stroke-width:.265;stroke:#fff"/>
 <rect x="137.05" y="112.92" width="14.021" height="14.021" ry="2.0572" style="fill-rule:evenodd;fill:#7e7e7e;stroke-width:.265;stroke:#fff"/>
 <rect x="152.56" y="112.85" width="14.021" height="14.021" ry="2.0572" style="fill-rule:evenodd;fill:#7e7e7e;stroke-width:.265;stroke:#fff"/>
 <rect x="152.56" y="129.14" width="14.021" height="14.021" ry="2.0572" style="fill-rule:evenodd;fill:#7e7e7e;stroke-width:.265;stroke:#fff"/>
 <rect x="137.13" y="129.24" width="14.021" height="14.021" ry="2.0572" style="fill-rule:evenodd;fill:#7e7e7e;stroke-width:.265;stroke:#fff"/>
 <rect x="177.98" y="80.066" width="14.021" height="14.021" ry="2.0572" style="fill-rule:evenodd;fill:#7e7e7e;stroke-width:.265;stroke:#fff"/>
 <rect x="193.49" y="79.989" width="14.021" height="14.021" ry="2.0572" style="fill-rule:evenodd;fill:#7e7e7e;stroke-width:.265;stroke:#fff"/>
 <rect x="193.49" y="96.28" width="14.021" height="14.021" ry="2.0572" style="fill-rule:evenodd;fill:#7e7e7e;stroke-width:.265;stroke:#fff"/>
 <rect x="178.06" y="96.388" width="14.021" height="14.021" ry="2.0572" style="fill-rule:evenodd;fill:#7e7e7e;stroke-width:.265;stroke:#fff"/>
 <rect x="178.06" y="112.94" width="14.021" height="14.021" ry="2.0572" style="fill-rule:evenodd;fill:#7e7e7e;stroke-width:.265;stroke:#fff"/>
 <rect x="193.57" y="112.86" width="14.021" height="14.021" ry="2.0572" style="fill-rule:evenodd;fill:#7e7e7e;stroke-width:.265;stroke:#fff"/>
 <rect x="193.57" y="129.15" width="14.021" height="14.021" ry="2.0572" style="fill-rule:evenodd;fill:#7e7e7e;stroke-width:.265;stroke:#fff"/>
 <rect x="178.14" y="129.26" width="14.021" height="14.021" ry="2.0572" style="fill-rule:evenodd;fill:#7e7e7e;stroke-width:.265;stroke:#fff"/>
 <rect x="193.57" y="145.39" width="14.021" height="14.021" ry="2.0572" style="fill-rule:evenodd;fill:#7e7e7e;stroke-width:.265;stroke:#fff"/>
 <rect x="178.14" y="145.5" width="14.021" height="14.021" ry="2.0572" style="fill-rule:evenodd;fill:#7e7e7e;stroke-width:.265;stroke:#fff"/>
 <rect x="18.375" y="145.6" width="14.021" height="14.021" ry="2.0572" style="fill-rule:evenodd;fill:#7e7e7e;stroke-width:.265;stroke:#fff"/>
 <rect x="2.9463" y="145.71" width="14.021" height="14.021" ry="2.0572" style="fill-rule:evenodd;fill:#7e7e7e;stroke-width:.265;stroke:#fff"/>
 <rect x="10.133" y="3.3216" width="189.73" height="6.9283" ry="2.0568" style="fill:#7e7e7e;stroke-width:.26622;stroke:#fff"/>
 <text transform="scale(1.2351 .80965)" x="51.781544" y="11.234563" style="fill:#000000;font-family:sans-serif;font-size:8.6571px;line-height:1.25;stroke-width:.21643" xml:space="preserve"><tspan x="51.781544" y="11.234563" style="stroke-width:.21643">P A N T A L L A</tspan></text>
</svg>
