<svg class='butacas' width="210mm" height="162mm" version="1.1" viewBox="0 0 210 162" xmlns="http://www.w3.org/2000/svg">
 <rect class='butaca' id='a1' x="3" y="15" width="14" height="14" ry="2.0572"/>
 <rect class='butaca' id='b1' x="3" y="31" width="14" height="14" ry="2.0572"/>
 <rect class='butaca' id='c1' x="3" y="47" width="14" height="14" ry="2.0572"/>
 <rect class='butaca' id='d1' x="3" y="63" width="14" height="14" ry="2.0572"/>
 <rect class='butaca' id='e1' x="3" y="79" width="14" height="14" ry="2.0572"/>
 <rect class='butaca' id='f1' x="3" y="95" width="14" height="14" ry="2.0572"/>
 <rect class='butaca' id='g1' x="3" y="111" width="14" height="14" ry="2.0572"/>
 <rect class='butaca' id='h1' x="3" y="127" width="14" height="14" ry="2.0572"/>
 <rect class='butaca' id='i1' x="3" y="143" width="14" height="14" ry="2.0572"/>
 <rect class='butaca' id='a2' x="19" y="15" width="14" height="14" ry="2.0572"/>
 <rect class='butaca' id='b2' x="19" y="31" width="14" height="14" ry="2.0572"/>
 <rect class='butaca' id='c2' x="19" y="47" width="14" height="14" ry="2.0572"/>
 <rect class='butaca' id='d2' x="19" y="63" width="14" height="14" ry="2.0572"/>
 <rect class='butaca' id='e2' x="19" y="79" width="14" height="14" ry="2.0572"/>
 <rect class='butaca' id='f2' x="19" y="95" width="14" height="14" ry="2.0572"/>
 <rect class='butaca' id='g2' x="19" y="111" width="14" height="14" ry="2.0572"/>
 <rect class='butaca' id='h2' x="19" y="127" width="14" height="14" ry="2.0572"/>
 <rect class='butaca' id='i2' x="19" y="143" width="14" height="14" ry="2.0572"/>
 <rect class='butaca' id='a3' x="42" y="15" width="14" height="14" ry="2.0572"/>
 <rect class='butaca' id='b3' x="42" y="31" width="14" height="14" ry="2.0572"/>
 <rect class='butaca' id='c3' x="42" y="47" width="14" height="14" ry="2.0572"/>
 <rect class='butaca' id='d3' x="42" y="63" width="14" height="14" ry="2.0572"/>
 <rect class='butaca' id='e3' x="42" y="79" width="14" height="14" ry="2.0572"/>
 <rect class='butaca' id='f3' x="42" y="95" width="14" height="14" ry="2.0572"/>
 <rect class='butaca' id='g3' x="42" y="111" width="14" height="14" ry="2.0572"/>
 <rect class='butaca' id='h3' x="42" y="127" width="14" height="14" ry="2.0572"/>
 <rect class='butaca' id='a4' x="58" y="15" width="14" height="14" ry="2.0572"/>
 <rect class='butaca' id='b4' x="58" y="31" width="14" height="14" ry="2.0572"/>
 <rect class='butaca' id='c4' x="58" y="47" width="14" height="14" ry="2.0572"/>
 <rect class='butaca' id='d4' x="58" y="63" width="14" height="14" ry="2.0572"/>
 <rect class='butaca' id='e4' x="58" y="79" width="14" height="14" ry="2.0572"/>
 <rect class='butaca' id='f4' x="58" y="95" width="14" height="14" ry="2.0572"/>
 <rect class='butaca' id='g4' x="58" y="111" width="14" height="14" ry="2.0572"/>
 <rect class='butaca' id='h4' x="58" y="127" width="14" height="14" ry="2.0572"/>
 <rect class='butaca' id='a5' x="74" y="15" width="14" height="14" ry="2.0572"/>
 <rect class='butaca' id='b5' x="74" y="31" width="14" height="14" ry="2.0572"/>
 <rect class='butaca' id='c5' x="74" y="47" width="14" height="14" ry="2.0572"/>
 <rect class='butaca' id='d5' x="74" y="63" width="14" height="14" ry="2.0572"/>
 <rect class='butaca' id='e5' x="74" y="79" width="14" height="14" ry="2.0572"/>
 <rect class='butaca' id='f5' x="74" y="95" width="14" height="14" ry="2.0572"/>
 <rect class='butaca' id='g5' x="74" y="111" width="14" height="14" ry="2.0572"/>
 <rect class='butaca' id='h5' x="74" y="127" width="14" height="14" ry="2.0572"/>
 <rect class='butaca' id='a6' x="90" y="15" width="14" height="14" ry="2.0572"/>
 <rect class='butaca' id='b6' x="90" y="31" width="14" height="14" ry="2.0572"/>
 <rect class='butaca' id='c6' x="90" y="47" width="14" height="14" ry="2.0572"/>
 <rect class='butaca' id='d6' x="90" y="63" width="14" height="14" ry="2.0572"/>
 <rect class='butaca' id='e6' x="90" y="79" width="14" height="14" ry="2.0572"/>
 <rect class='butaca' id='f6' x="90" y="95" width="14" height="14" ry="2.0572"/>
 <rect class='butaca' id='g6' x="90" y="111" width="14" height="14" ry="2.0572"/>
 <rect class='butaca' id='h6' x="90" y="127" width="14" height="14" ry="2.0572"/>
 <rect class='butaca' id='a7' x="106" y="15" width="14" height="14" ry="2.0572"/>
 <rect class='butaca' id='b7' x="106" y="31" width="14" height="14" ry="2.0572"/>
 <rect class='butaca' id='c7' x="106" y="47" width="14" height="14" ry="2.0572"/>
 <rect class='butaca' id='d7' x="106" y="63" width="14" height="14" ry="2.0572"/>
 <rect class='butaca' id='e7' x="106" y="79" width="14" height="14" ry="2.0572"/>
 <rect class='butaca' id='f7' x="106" y="95" width="14" height="14" ry="2.0572"/>
 <rect class='butaca' id='g7' x="106" y="111" width="14" height="14" ry="2.0572"/>
 <rect class='butaca' id='h7' x="106" y="127" width="14" height="14" ry="2.0572"/>
 <rect class='butaca' id='a8' x="122" y="15" width="14" height="14" ry="2.0572"/>
 <rect class='butaca' id='b8' x="122" y="31" width="14" height="14" ry="2.0572"/>
 <rect class='butaca' id='c8' x="122" y="47" width="14" height="14" ry="2.0572"/>
 <rect class='butaca' id='d8' x="122" y="63" width="14" height="14" ry="2.0572"/>
 <rect class='butaca' id='e8' x="122" y="79" width="14" height="14" ry="2.0572"/>
 <rect class='butaca' id='f8' x="122" y="95" width="14" height="14" ry="2.0572"/>
 <rect class='butaca' id='g8' x="122" y="111" width="14" height="14" ry="2.0572"/>
 <rect class='butaca' id='h8' x="122" y="127" width="14" height="14" ry="2.0572"/>
 <rect class='butaca' id='a9' x="138" y="15" width="14" height="14" ry="2.0572"/>
 <rect class='butaca' id='b9' x="138" y="31" width="14" height="14" ry="2.0572"/>
 <rect class='butaca' id='c9' x="138" y="47" width="14" height="14" ry="2.0572"/>
 <rect class='butaca' id='d9' x="138" y="63" width="14" height="14" ry="2.0572"/>
 <rect class='butaca' id='e9' x="138" y="79" width="14" height="14" ry="2.0572"/>
 <rect class='butaca' id='f9' x="138" y="95" width="14" height="14" ry="2.0572"/>
 <rect class='butaca' id='g9' x="138" y="111" width="14" height="14" ry="2.0572"/>
 <rect class='butaca' id='h9' x="138" y="127" width="14" height="14" ry="2.0572"/>
 <rect class='butaca' id='a10' x="154" y="15" width="14" height="14" ry="2.0572"/>
 <rect class='butaca' id='b10' x="154" y="31" width="14" height="14" ry="2.0572"/>
 <rect class='butaca' id='c10' x="154" y="47" width="14" height="14" ry="2.0572"/>
 <rect class='butaca' id='d10' x="154" y="63" width="14" height="14" ry="2.0572"/>
 <rect class='butaca' id='e10' x="154" y="79" width="14" height="14" ry="2.0572"/>
 <rect class='butaca' id='f10' x="154" y="95" width="14" height="14" ry="2.0572"/>
 <rect class='butaca' id='g10' x="154" y="111" width="14" height="14" ry="2.0572"/>
 <rect class='butaca' id='h10' x="154" y="127" width="14" height="14" ry="2.0572"/>
 <rect class='butaca' id='a11' x="177" y="15" width="14" height="14" ry="2.0572"/>
 <rect class='butaca' id='b11' x="177" y="31" width="14" height="14" ry="2.0572"/>
 <rect class='butaca' id='c11' x="177" y="47" width="14" height="14" ry="2.0572"/>
 <rect class='butaca' id='d11' x="177" y="63" width="14" height="14" ry="2.0572"/>
 <rect class='butaca' id='e11' x="177" y="79" width="14" height="14" ry="2.0572"/>
 <rect class='butaca' id='f11' x="177" y="95" width="14" height="14" ry="2.0572"/>
 <rect class='butaca' id='g11' x="177" y="111" width="14" height="14" ry="2.0572"/>
 <rect class='butaca' id='h11' x="177" y="127" width="14" height="14" ry="2.0572"/>
 <rect class='butaca' id='h12' x="177" y="143" width="14" height="14" ry="2.0572"/>
 <rect class='butaca' id='a12' x="193" y="15" width="14" height="14" ry="2.0572"/>
 <rect class='butaca' id='b12' x="193" y="31" width="14" height="14" ry="2.0572"/>
 <rect class='butaca' id='c12' x="193" y="47" width="14" height="14" ry="2.0572"/>
 <rect class='butaca' id='d12' x="193" y="63" width="14" height="14" ry="2.0572"/>
 <rect class='butaca' id='e12' x="193" y="79" width="14" height="14" ry="2.0572"/>
 <rect class='butaca' id='f12' x="193" y="95" width="14" height="14" ry="2.0572"/>
 <rect class='butaca' id='g12' x="193" y="111" width="14" height="14" ry="2.0572"/>
 <rect class='butaca' id='h12' x="193" y="127" width="14" height="14" ry="2.0572"/>
 <rect class='butaca' id='i12' x="193" y="143" width="14" height="14" ry="2.0572"/>
 <rect class='screen' x="10.133" y="3.3216" width="189.73" height="6.9283" ry="2.0568" />
 <text class='screen-text' transform="scale(1.2351 .80965)" x="51.781544" y="11.234563" style="fill:#000000;font-family:sans-serif;font-size:8.6571px;line-height:1.25;stroke-width:.21643" xml:space="preserve"><tspan x="51.781544" y="11.234563" style="stroke-width:.21643">P A N T A L L A</tspan></text>
</svg>
